<svg xmlns="http://www.w3.org/2000/svg" viewBox="0 0 128 128">
  <path fill="#0db7ed" d="M124.8 52.1c-4.3-2.5-10-2.8-14.8-1.4-.6-5.2-4-9.7-8-12.9l-1.6-1.3-1 1.7c-2 3.2-2.8 8.7-2.6 13 .2 3.2 1.2 6.4 3 9.4-1.4.8-2.9 1.9-4.3 2.4-2.8 1-5.9 2-8.9 2H32V49H17.8V33.4H3.7v15.8H0v13.7h3.7v15.8H18v-15.8h14v15.8h15.8V62.4h4.1c3.9 0 7.3-.6 10.8-1.8v14.8h15.8V61.6c9.5-2.6 15.6-8.3 20.7-14.4 2.6 1.3 5.3 2 7.9 2 3.7 0 7.3-1.4 10.2-4l.9-.8-1.3-1zM56.2 49.1h-14V33.4h14v15.7zm15.8 0H57.9V33.4h14v15.7zm15.8 0H73.7V33.4h14v15.7zm15.8 0H89.5V33.4h14v15.7z"/>
</svg>