<svg version="1.1" id="Layer_1" xmlns="http://www.w3.org/2000/svg" xmlns:xlink="http://www.w3.org/1999/xlink" x="0px" y="0px"
	 width="100%" viewBox="0 0 1000 1000" enable-background="new 0 0 1000 1000" xml:space="preserve">
<path fill="#FFFFFF" opacity="1.000000" stroke="none" 
	d="
M551.000000,1001.000000 
	C367.333344,1001.000000 184.166672,1001.000000 1.000000,1001.000000 
	C1.000000,667.666687 1.000000,334.333344 1.000000,1.000000 
	C334.333344,1.000000 667.666687,1.000000 1001.000000,1.000000 
	C1001.000000,334.333344 1001.000000,667.666687 1001.000000,1001.000000 
	C851.166687,1001.000000 701.333313,1001.000000 551.000000,1001.000000 
M181.233932,599.002380 
	C174.740234,604.556274 173.813568,611.516602 175.949310,619.348572 
	C177.257904,624.147339 179.464630,625.373718 183.727814,623.036621 
	C189.561081,619.838806 195.278473,616.429504 201.689224,612.809204 
	C208.796204,608.817505 215.903168,604.825806 223.698990,600.745728 
	C237.422012,592.957703 251.145035,585.169617 265.403107,577.030640 
	C270.673370,573.931946 275.943634,570.833313 281.275055,567.698730 
	C280.765259,566.705505 280.661285,566.098022 280.317444,565.893127 
	C273.762085,561.986877 267.201874,558.086670 260.563141,554.325623 
	C259.928497,553.966064 258.613617,554.275513 257.876465,554.714417 
	C252.999496,557.618042 248.194183,560.641968 242.715897,563.845703 
	C235.357162,567.927917 227.941833,571.912170 220.657349,576.122925 
	C214.656525,579.591614 208.810776,583.328613 202.170181,587.014648 
	C195.430527,590.974182 188.690857,594.933716 181.233932,599.002380 
M229.276978,498.162689 
	C232.005264,496.729279 234.794998,495.400513 237.449707,493.841766 
	C244.014816,489.986847 250.518082,486.026611 257.775726,481.995728 
	C263.556335,478.988831 269.462891,476.198120 275.086517,472.921783 
	C282.565918,468.564240 287.951599,462.824677 287.070160,453.148010 
	C286.510651,447.005951 282.371857,444.068298 276.961304,447.073425 
	C264.168091,454.179047 251.570297,461.636536 238.171310,469.009827 
	C228.491043,474.544586 218.810776,480.079346 208.551895,485.913361 
	C201.187561,490.010925 193.770462,494.017548 186.481750,498.245483 
	C182.989792,500.271118 183.219727,503.215210 186.833817,505.367218 
	C190.880447,507.776794 194.826706,510.437103 199.106812,512.333252 
	C200.895569,513.125610 203.818634,512.935120 205.562454,511.980103 
	C213.383423,507.696838 220.965668,502.977661 229.276978,498.162689 
M130.577484,399.978180 
	C119.722054,406.375000 108.866615,412.771790 97.317268,419.240295 
	C92.528275,422.124786 87.739288,425.009277 82.307426,428.194458 
	C79.781219,429.685791 77.193779,431.083527 74.741531,432.687927 
	C69.619522,436.039124 69.914818,438.776062 75.370514,441.783844 
	C85.950317,447.616638 96.491943,453.521454 106.975548,459.525330 
	C126.807190,470.882812 146.501236,482.484100 166.443924,493.641846 
	C171.871292,496.678436 177.938431,496.482025 184.275177,493.156006 
	C190.200012,489.805542 196.124847,486.455078 202.691788,482.801605 
	C212.915237,476.828033 223.138687,470.854431 234.141174,464.882416 
	C237.142456,463.244781 240.174820,461.661285 243.139435,459.959717 
	C253.728745,453.881927 264.378540,447.902435 274.830536,441.595856 
	C279.246765,438.931244 279.010468,434.987457 274.923401,431.953400 
	C266.557465,425.742981 256.691254,426.501404 248.487854,431.134277 
	C236.875259,437.692566 225.560562,444.778320 213.576218,451.978638 
	C203.171356,457.867004 192.766479,463.755371 181.651260,469.873016 
	C175.180603,473.205627 169.594162,470.836273 163.902115,467.508240 
	C153.500015,461.426270 142.875656,455.725739 132.421661,449.730682 
	C125.859673,445.967590 119.439331,441.957550 112.497307,437.782776 
	C114.638542,436.362854 116.346199,435.230438 118.695251,433.796997 
	C129.811844,427.234894 140.928421,420.672760 152.685608,413.807098 
	C163.734695,407.218384 174.893555,400.801636 185.731003,393.881470 
	C187.667053,392.645233 189.731628,388.936859 189.226883,387.036652 
	C187.487534,380.488617 173.770538,375.730011 167.803604,379.064270 
	C155.564682,385.903229 143.346146,392.778625 130.577484,399.978180 
M217.820404,554.987366 
	C223.871155,551.494934 229.873245,547.914001 235.993683,544.548401 
	C238.952011,542.921570 238.674179,541.515320 236.095474,540.041809 
	C230.294479,536.726990 224.518173,533.351501 218.557266,530.346985 
	C217.147034,529.636169 214.818634,529.765808 213.309967,530.422241 
	C209.351822,532.144409 205.612869,534.370361 201.690521,536.446411 
	C201.027679,534.236755 200.034500,532.632507 200.182510,531.141602 
	C201.125702,521.640503 196.662476,515.723083 188.075348,512.680969 
	C184.163635,511.295135 181.260269,506.893036 176.166473,508.325653 
	C176.166473,515.748962 176.166473,522.873108 176.029144,530.898132 
	C176.688599,544.565369 177.221741,558.240540 178.080124,571.895264 
	C178.358231,576.319214 181.718994,575.626892 184.251038,574.189331 
	C195.272049,567.932373 206.165619,561.450867 217.820404,554.987366 
M129.970200,517.098511 
	C129.970200,513.497437 129.970200,509.896393 129.970200,505.049164 
	C134.697021,507.662170 138.762680,509.540649 142.412033,512.029480 
	C146.153931,514.581482 149.210770,514.766113 152.826721,510.986755 
	C156.706497,508.939423 160.662064,507.021515 164.443863,504.806854 
	C167.935257,502.762238 167.751190,500.942719 164.141724,499.024017 
	C160.980667,497.343658 157.797089,495.700073 154.693100,493.918884 
	C128.007187,478.605194 101.370361,463.205353 74.613808,448.016327 
	C71.759644,446.396088 68.927773,442.859711 65.050949,445.087372 
	C60.909973,447.466858 63.694843,451.654419 63.030045,455.793365 
	C63.130085,456.769348 63.040779,457.812500 63.359375,458.710999 
	C66.638084,467.957153 74.352699,472.820068 82.144821,477.604492 
	C93.113174,484.339233 104.987076,490.256439 107.031898,505.878387 
	C107.518227,515.521606 108.004555,525.164795 108.528275,535.549316 
	C110.665405,534.698669 112.510002,534.173218 114.146347,533.270325 
	C117.711861,531.303040 120.984138,528.674377 124.722122,527.182739 
	C129.250565,525.375732 130.827942,522.577576 129.970200,517.098511 
M286.966705,542.059387 
	C286.978729,529.091125 287.068848,516.122253 286.970062,503.154846 
	C286.920135,496.601379 281.310913,493.152588 275.352936,495.939240 
	C272.112671,497.454773 269.003387,499.262238 265.889679,501.034027 
	C258.247620,505.382599 250.637192,509.786804 242.311401,514.246277 
	C237.144684,517.040833 231.971268,519.823120 226.813477,522.634155 
	C223.031403,524.695374 222.943863,525.818665 226.755234,528.182495 
	C230.637543,530.590332 235.099594,532.211853 238.603363,535.047974 
	C244.325882,539.680115 249.130737,537.391235 254.214386,534.301941 
	C256.474518,532.928528 258.862274,531.765137 261.621796,530.274231 
	C262.167694,534.743347 263.221893,538.222229 262.854675,541.543945 
	C262.266144,546.867798 264.083374,550.083740 268.817535,552.395203 
	C274.424194,555.132568 279.790436,558.362305 286.831085,562.244446 
	C286.831085,554.777222 286.831085,548.881653 286.966705,542.059387 
M131.020828,571.083740 
	C130.088928,558.162231 129.157028,545.240662 128.216522,532.200012 
	C127.884109,532.200012 127.109528,531.963928 126.614624,532.236206 
	C121.055466,535.294495 115.493896,538.355225 110.054001,541.617065 
	C109.089592,542.195374 108.210144,543.651306 108.095795,544.783142 
	C107.618752,549.504761 107.448776,554.257446 107.029251,559.707275 
	C106.463799,560.169189 105.679810,561.144836 105.367401,561.011902 
	C102.813126,559.925293 100.156296,558.908264 97.891525,557.346619 
	C92.397911,553.558411 87.321289,553.432800 81.805206,557.510376 
	C77.707672,560.539429 73.070793,562.838867 67.574722,566.119446 
	C69.465866,567.425720 70.384651,568.140625 71.376534,568.733093 
	C81.598213,574.838867 91.786209,581.002991 102.073433,586.996582 
	C114.906853,594.473633 127.818100,601.817322 140.708649,609.196045 
	C148.785416,613.819275 156.815445,618.531555 165.003326,622.950256 
	C169.600830,625.431458 172.004974,624.414246 172.687286,619.389771 
	C173.504639,613.370972 173.496902,607.433350 169.613052,601.891418 
	C164.988129,595.292114 157.828033,592.781860 151.362167,589.101746 
	C143.526505,584.642029 135.621429,580.320923 131.020828,571.083740 
M155.084106,518.245117 
	C160.176025,522.568970 165.883179,525.616455 173.283554,527.556519 
	C172.903992,520.462646 172.574219,514.299744 172.174164,506.822998 
	C165.497772,510.520020 159.241409,512.209473 155.084106,518.245117 
M63.487041,549.989319 
	C63.991966,552.041016 64.672188,554.068481 64.960953,556.150146 
	C65.400398,559.318054 67.515678,559.637512 69.642471,558.618042 
	C73.008049,557.004822 76.149361,554.906616 79.319603,552.908936 
	C81.543884,551.507385 81.860565,549.528503 79.482712,548.251343 
	C74.121925,545.371887 68.570580,542.847107 61.737774,539.515381 
	C62.313915,543.672180 62.700726,546.463013 63.487041,549.989319 
z"/>
<path fill="#13CEC4" opacity="1.000000" stroke="none" 
	d="
M131.113159,571.955750 
	C135.621429,580.320923 143.526505,584.642029 151.362167,589.101746 
	C157.828033,592.781860 164.988129,595.292114 169.613052,601.891418 
	C173.496902,607.433350 173.504639,613.370972 172.687286,619.389771 
	C172.004974,624.414246 169.600830,625.431458 165.003326,622.950256 
	C156.815445,618.531555 148.785416,613.819275 140.708649,609.196045 
	C127.818100,601.817322 114.906853,594.473633 102.073433,586.996582 
	C91.786209,581.002991 81.598213,574.838867 71.376534,568.733093 
	C70.384651,568.140625 69.465866,567.425720 67.574722,566.119446 
	C73.070793,562.838867 77.707672,560.539429 81.805206,557.510376 
	C87.321289,553.432800 92.397911,553.558411 97.891525,557.346619 
	C100.156296,558.908264 102.813126,559.925293 105.367401,561.011902 
	C105.679810,561.144836 106.463799,560.169189 107.461166,559.359375 
	C109.526718,559.751648 111.232613,560.365967 112.781288,561.254333 
	C118.918633,564.774902 125.006783,568.381226 131.113159,571.955750 
z"/>
<path fill="#2F8CBA" opacity="1.000000" stroke="none" 
	d="
M118.053848,434.098022 
	C116.346199,435.230438 114.638542,436.362854 112.497307,437.782776 
	C119.439331,441.957550 125.859673,445.967590 132.421661,449.730682 
	C142.875656,455.725739 153.500015,461.426270 163.902115,467.508240 
	C169.594162,470.836273 175.180603,473.205627 182.362854,469.941223 
	C184.469727,470.885803 185.904953,471.705078 187.253174,472.648682 
	C192.200989,476.111603 197.119904,479.615875 202.049683,483.104614 
	C196.124847,486.455078 190.200012,489.805542 183.593323,493.074036 
	C172.415039,486.307159 161.915634,479.626831 151.422821,472.936188 
	C135.053619,462.498535 118.630180,452.144257 102.350731,441.568390 
	C95.720802,437.261292 89.407608,432.466614 82.950302,427.893799 
	C87.739288,425.009277 92.528275,422.124786 97.707764,419.541779 
	C99.547058,421.123596 100.884773,422.565002 102.465057,423.654663 
	C107.613609,427.204956 112.850769,430.626770 118.053848,434.098022 
z"/>
<path fill="#279FBD" opacity="1.000000" stroke="none" 
	d="
M63.166260,454.999237 
	C63.694843,451.654419 60.909973,447.466858 65.050949,445.087372 
	C68.927773,442.859711 71.759644,446.396088 74.613808,448.016327 
	C101.370361,463.205353 128.007187,478.605194 154.693100,493.918884 
	C157.797089,495.700073 160.980667,497.343658 164.141724,499.024017 
	C167.751190,500.942719 167.935257,502.762238 164.443863,504.806854 
	C160.662064,507.021515 156.706497,508.939423 152.153625,510.871460 
	C149.636398,509.358246 147.877182,507.827972 145.935272,506.582489 
	C121.014236,490.599121 96.084480,474.629059 71.099190,458.746460 
	C68.650414,457.189789 65.819695,456.233978 63.166260,454.999237 
z"/>
<path fill="#2C94BB" opacity="1.000000" stroke="none" 
	d="
M82.628860,428.044128 
	C89.407608,432.466614 95.720802,437.261292 102.350731,441.568390 
	C118.630180,452.144257 135.053619,462.498535 151.422821,472.936188 
	C161.915634,479.626831 172.415039,486.307159 183.263489,493.178467 
	C177.938431,496.482025 171.871292,496.678436 166.443924,493.641846 
	C146.501236,482.484100 126.807190,470.882812 106.975548,459.525330 
	C96.491943,453.521454 85.950317,447.616638 75.370514,441.783844 
	C69.914818,438.776062 69.619522,436.039124 74.741531,432.687927 
	C77.193779,431.083527 79.781219,429.685791 82.628860,428.044128 
z"/>
<path fill="#377BB7" opacity="1.000000" stroke="none" 
	d="
M243.014038,514.168640 
	C250.637192,509.786804 258.247620,505.382599 265.889679,501.034027 
	C269.003387,499.262238 272.112671,497.454773 275.352936,495.939240 
	C281.310913,493.152588 286.920135,496.601379 286.970062,503.154846 
	C287.068848,516.122253 286.978729,529.091125 286.555603,542.482544 
	C285.390381,542.578003 284.575134,542.345886 283.891266,541.908386 
	C271.284088,533.842468 258.672852,525.782288 246.128159,517.619995 
	C244.872986,516.803284 244.041946,515.334656 243.014038,514.168640 
z"/>
<path fill="#24A8BE" opacity="1.000000" stroke="none" 
	d="
M63.098152,455.396301 
	C65.819695,456.233978 68.650414,457.189789 71.099190,458.746460 
	C96.084480,474.629059 121.014236,490.599121 145.935272,506.582489 
	C147.877182,507.827972 149.636398,509.358246 151.792755,510.903839 
	C149.210770,514.766113 146.153931,514.581482 142.412033,512.029480 
	C138.762680,509.540649 134.697021,507.662170 129.970200,505.049164 
	C129.970200,509.896393 129.970200,513.497437 129.556549,517.510498 
	C127.849983,517.222900 126.531647,516.566101 125.268471,515.816345 
	C119.226677,512.230286 113.199860,508.618958 107.167694,505.016663 
	C104.987076,490.256439 93.113174,484.339233 82.144821,477.604492 
	C74.352699,472.820068 66.638084,467.957153 63.359375,458.710999 
	C63.040779,457.812500 63.130085,456.769348 63.098152,455.396301 
z"/>
<path fill="#3F67B4" opacity="1.000000" stroke="none" 
	d="
M214.118561,451.638672 
	C225.560562,444.778320 236.875259,437.692566 248.487854,431.134277 
	C256.691254,426.501404 266.557465,425.742981 274.923401,431.953400 
	C279.010468,434.987457 279.246765,438.931244 274.830536,441.595856 
	C264.378540,447.902435 253.728745,453.881927 243.139435,459.959717 
	C240.174820,461.661285 237.142456,463.244781 233.609589,464.495972 
	C226.758179,459.952545 220.438354,455.795593 214.118561,451.638672 
z"/>
<path fill="#279FBD" opacity="1.000000" stroke="none" 
	d="
M176.166473,529.997192 
	C176.166473,522.873108 176.166473,515.748962 176.166473,508.325653 
	C181.260269,506.893036 184.163635,511.295135 188.075348,512.680969 
	C196.662476,515.723083 201.125702,521.640503 200.182510,531.141602 
	C200.034500,532.632507 201.027679,534.236755 201.690521,536.446411 
	C205.612869,534.370361 209.351822,532.144409 213.309967,530.422241 
	C214.818634,529.765808 217.147034,529.636169 218.557266,530.346985 
	C224.518173,533.351501 230.294479,536.726990 236.095474,540.041809 
	C238.674179,541.515320 238.952011,542.921570 235.993683,544.548401 
	C229.873245,547.914001 223.871155,551.494934 217.150848,554.871643 
	C204.456772,546.899902 192.452042,539.013123 180.376511,531.236328 
	C179.196533,530.476440 177.580231,530.394104 176.166473,529.997192 
z"/>
<path fill="#3F67B4" opacity="1.000000" stroke="none" 
	d="
M131.119202,399.638977 
	C143.346146,392.778625 155.564682,385.903229 167.803604,379.064270 
	C173.770538,375.730011 187.487534,380.488617 189.226883,387.036652 
	C189.731628,388.936859 187.667053,392.645233 185.731003,393.881470 
	C174.893555,400.801636 163.734695,407.218384 152.215942,413.645752 
	C144.870575,408.869293 137.994904,404.254150 131.119202,399.638977 
z"/>
<path fill="#24A8BE" opacity="1.000000" stroke="none" 
	d="
M202.896301,586.946777 
	C208.810776,583.328613 214.656525,579.591614 220.657349,576.122925 
	C227.941833,571.912170 235.357162,567.927917 243.392975,563.923340 
	C251.002716,568.461243 257.935364,572.921387 264.868042,577.381531 
	C251.145035,585.169617 237.422012,592.957703 223.292496,600.461426 
	C216.222778,595.767029 209.559540,591.356873 202.896301,586.946777 
z"/>
<path fill="#24A8BE" opacity="1.000000" stroke="none" 
	d="
M176.097809,530.447632 
	C177.580231,530.394104 179.196533,530.476440 180.376511,531.236328 
	C192.452042,539.013123 204.456772,546.899902 216.793365,554.903442 
	C206.165619,561.450867 195.272049,567.932373 184.251038,574.189331 
	C181.718994,575.626892 178.358231,576.319214 178.080124,571.895264 
	C177.221741,558.240540 176.688599,544.565369 176.097809,530.447632 
z"/>
<path fill="#2F8CBA" opacity="1.000000" stroke="none" 
	d="
M242.662720,514.207458 
	C244.041946,515.334656 244.872986,516.803284 246.128159,517.619995 
	C258.672852,525.782288 271.284088,533.842468 283.891266,541.908386 
	C284.575134,542.345886 285.390381,542.578003 286.487793,542.945923 
	C286.831085,548.881653 286.831085,554.777222 286.831085,562.244446 
	C279.790436,558.362305 274.424194,555.132568 268.817535,552.395203 
	C264.083374,550.083740 262.266144,546.867798 262.854675,541.543945 
	C263.221893,538.222229 262.167694,534.743347 261.621796,530.274231 
	C258.862274,531.765137 256.474518,532.928528 254.214386,534.301941 
	C249.130737,537.391235 244.325882,539.680115 238.603363,535.047974 
	C235.099594,532.211853 230.637543,530.590332 226.755234,528.182495 
	C222.943863,525.818665 223.031403,524.695374 226.813477,522.634155 
	C231.971268,519.823120 237.144684,517.040833 242.662720,514.207458 
z"/>
<path fill="#377BB7" opacity="1.000000" stroke="none" 
	d="
M130.848358,399.808594 
	C137.994904,404.254150 144.870575,408.869293 151.895630,413.797546 
	C140.928421,420.672760 129.811844,427.234894 118.374542,433.947510 
	C112.850769,430.626770 107.613609,427.204956 102.465057,423.654663 
	C100.884773,422.565002 99.547058,421.123596 98.054718,419.505920 
	C108.866615,412.771790 119.722054,406.375000 130.848358,399.808594 
z"/>
<path fill="#3F67B4" opacity="1.000000" stroke="none" 
	d="
M238.893478,468.951752 
	C251.570297,461.636536 264.168091,454.179047 276.961304,447.073425 
	C282.371857,444.068298 286.510651,447.005951 287.070160,453.148010 
	C287.951599,462.824677 282.565918,468.564240 275.086517,472.921783 
	C269.462891,476.198120 263.556335,478.988831 257.264404,481.737976 
	C250.799866,477.304077 244.846664,473.127930 238.893478,468.951752 
z"/>
<path fill="#377BB7" opacity="1.000000" stroke="none" 
	d="
M213.847382,451.808655 
	C220.438354,455.795593 226.758179,459.952545 233.220062,464.495178 
	C223.138687,470.854431 212.915237,476.828033 202.370728,482.953094 
	C197.119904,479.615875 192.200989,476.111603 187.253174,472.648682 
	C185.904953,471.705078 184.469727,470.885803 182.718018,469.826599 
	C192.766479,463.755371 203.171356,457.867004 213.847382,451.808655 
z"/>
<path fill="#377BB7" opacity="1.000000" stroke="none" 
	d="
M238.532394,468.980774 
	C244.846664,473.127930 250.799866,477.304077 256.899628,481.794495 
	C250.518082,486.026611 244.014816,489.986847 237.449707,493.841766 
	C234.794998,495.400513 232.005264,496.729279 228.606995,498.090607 
	C221.668182,493.883728 215.399353,489.748901 209.130508,485.614105 
	C218.810776,480.079346 228.491043,474.544586 238.532394,468.980774 
z"/>
<path fill="#2F8CBA" opacity="1.000000" stroke="none" 
	d="
M208.841202,485.763733 
	C215.399353,489.748901 221.668182,493.883728 228.285538,498.217133 
	C220.965668,502.977661 213.383423,507.696838 205.562454,511.980103 
	C203.818634,512.935120 200.895569,513.125610 199.106812,512.333252 
	C194.826706,510.437103 190.880447,507.776794 186.833817,505.367218 
	C183.219727,503.215210 182.989792,500.271118 186.481750,498.245483 
	C193.770462,494.017548 201.187561,490.010925 208.841202,485.763733 
z"/>
<path fill="#1AC0C1" opacity="1.000000" stroke="none" 
	d="
M131.066986,571.519775 
	C125.006783,568.381226 118.918633,564.774902 112.781288,561.254333 
	C111.232613,560.365967 109.526718,559.751648 107.529633,559.005066 
	C107.448776,554.257446 107.618752,549.504761 108.095795,544.783142 
	C108.210144,543.651306 109.089592,542.195374 110.054001,541.617065 
	C115.493896,538.355225 121.055466,535.294495 126.614624,532.236206 
	C127.109528,531.963928 127.884109,532.200012 128.216522,532.200012 
	C129.157028,545.240662 130.088928,558.162231 131.066986,571.519775 
z"/>
<path fill="#1AC0C1" opacity="1.000000" stroke="none" 
	d="
M202.533234,586.980713 
	C209.559540,591.356873 216.222778,595.767029 222.948074,600.505615 
	C215.903168,604.825806 208.796204,608.817505 201.220428,612.645020 
	C198.795074,610.972534 196.881409,609.404236 194.873138,607.968262 
	C190.591858,604.906860 186.261475,601.914124 181.951202,598.893250 
	C188.690857,594.933716 195.430527,590.974182 202.533234,586.980713 
z"/>
<path fill="#279FBD" opacity="1.000000" stroke="none" 
	d="
M265.135559,577.206055 
	C257.935364,572.921387 251.002716,568.461243 243.717789,563.813843 
	C248.194183,560.641968 252.999496,557.618042 257.876465,554.714417 
	C258.613617,554.275513 259.928497,553.966064 260.563141,554.325623 
	C267.201874,558.086670 273.762085,561.986877 280.317444,565.893127 
	C280.661285,566.098022 280.765259,566.705505 281.275055,567.698730 
	C275.943634,570.833313 270.673370,573.931946 265.135559,577.206055 
z"/>
<path fill="#1AC0C1" opacity="1.000000" stroke="none" 
	d="
M107.099792,505.447510 
	C113.199860,508.618958 119.226677,512.230286 125.268471,515.816345 
	C126.531647,516.566101 127.849983,517.222900 129.487579,517.968079 
	C130.827942,522.577576 129.250565,525.375732 124.722122,527.182739 
	C120.984138,528.674377 117.711861,531.303040 114.146347,533.270325 
	C112.510002,534.173218 110.665405,534.698669 108.528275,535.549316 
	C108.004555,525.164795 107.518227,515.521606 107.099792,505.447510 
z"/>
<path fill="#13CEC4" opacity="1.000000" stroke="none" 
	d="
M181.592575,598.947815 
	C186.261475,601.914124 190.591858,604.906860 194.873138,607.968262 
	C196.881409,609.404236 198.795074,610.972534 200.898590,612.795898 
	C195.278473,616.429504 189.561081,619.838806 183.727814,623.036621 
	C179.464630,625.373718 177.257904,624.147339 175.949310,619.348572 
	C173.813568,611.516602 174.740234,604.556274 181.592575,598.947815 
z"/>
<path fill="#279FBD" opacity="1.000000" stroke="none" 
	d="
M155.056183,517.867554 
	C159.241409,512.209473 165.497772,510.520020 172.174164,506.822998 
	C172.574219,514.299744 172.903992,520.462646 173.283554,527.556519 
	C165.883179,525.616455 160.176025,522.568970 155.056183,517.867554 
z"/>
<path fill="#13CEC4" opacity="1.000000" stroke="none" 
	d="
M63.287292,549.621582 
	C62.700726,546.463013 62.313915,543.672180 61.737774,539.515381 
	C68.570580,542.847107 74.121925,545.371887 79.482712,548.251343 
	C81.860565,549.528503 81.543884,551.507385 79.319603,552.908936 
	C76.149361,554.906616 73.008049,557.004822 69.642471,558.618042 
	C67.515678,559.637512 65.400398,559.318054 64.960953,556.150146 
	C64.672188,554.068481 63.991966,552.041016 63.287292,549.621582 
z"/>
</svg>